[mov,mp4,m4a,3gp,3g2,mj2 @ 0x55f83bb1a000] stream 0, timescale not set
[h264 @ 0x55f83bb1bc00] Reinit context to 432x240, pix_fmt: yuv420p
Input #0, mov,mp4,m4a,3gp,3g2,mj2, from '/var/www/html/project/media/video/original/La_Ricerca_Della_Felicita_-_Discorso_al_figlio.mp4':
  Metadata:
    major_brand     : isom
    minor_version   : 512
    compatible_brands: isomiso2avc1mp41
    encoder         : Lavf61.9.102
  Duration: 00:01:47.86, start: 0.000000, bitrate: 383 kb/s
    Stream #0:0(und): Video: h264 (Main), 1 reference frame (avc1 / 0x31637661), yuv420p(tv, bt709, left), 426x238 (432x240) [SAR 1:1 DAR 213:119], 240 kb/s, 25 fps, 25 tbr, 12800 tbn, 50 tbc (default)
    Metadata:
      handler_name    : ISO Media file produced by Google Inc.
    Stream #0:1(und): Audio: aac (LC) (mp4a / 0x6134706D), 44100 Hz, stereo, fltp, 127 kb/s (default)
    Metadata:
      handler_name    : ISO Media file produced by Google Inc.
    Stream #0:2: Video: png, 1 reference frame, rgb24(pc), 480x360, 90k tbr, 90k tbn, 90k tbc (attached pic)
Input #1, png_pipe, from '/var/www/html/project/static/images/templates/logo.png':
  Duration: N/A, bitrate: N/A
    Stream #1:0: Video: png, 1 reference frame, rgba(pc), 1920x1080 [SAR 2835:2835 DAR 16:9], 25 tbr, 25 tbn, 25 tbc
[h264 @ 0x55f83bba0380] Reinit context to 1280x720, pix_fmt: yuv420p
Input #2, mov,mp4,m4a,3gp,3g2,mj2, from '/var/www/html/project/static/images/templates/Codino.mp4':
  Metadata:
    major_brand     : mp42
    minor_version   : 1
    compatible_brands: isommp41mp42
    creation_time   : 2021-07-11T07:02:58.000000Z
  Duration: 00:00:02.00, start: 0.000000, bitrate: 1007 kb/s
    Stream #2:0(ita): Audio: aac (LC) (mp4a / 0x6134706D), 44100 Hz, stereo, fltp, 102 kb/s (default)
    Metadata:
      creation_time   : 2021-07-11T07:02:58.000000Z
      handler_name    : Core Media Audio
    Stream #2:1(und): Video: h264 (High), 1 reference frame (avc1 / 0x31637661), yuv420p(tv, bt709, progressive, left), 1280x720 [SAR 1:1 DAR 16:9], 813 kb/s, 25 fps, 25 tbr, 25k tbn, 50k tbc (default)
    Metadata:
      creation_time   : 2021-07-11T07:02:58.000000Z
      handler_name    : Core Media Video
[Parsed_scale_0 @ 0x55f83bb34e40] w:1280 h:720 flags:'bilinear' interl:0
[Parsed_scale_2 @ 0x55f83bb35b80] w:1280 h:720 flags:'bilinear' interl:0
[Parsed_scale_4 @ 0x55f83bba1a00] w:1280 h:720 flags:'bilinear' interl:0
Stream mapping:
  Stream #0:0 (h264) -> scale
  Stream #0:1 (aac) -> concat:in0:a0
  Stream #1:0 (png) -> scale
  Stream #2:0 (aac) -> concat:in1:a0
  Stream #2:1 (h264) -> scale
  concat:out:v0 -> Stream #0:0 (libx264)
  concat:out:a0 -> Stream #0:1 (aac)
Press [q] to stop, [?] for help
[h264 @ 0x55f83bb89240] Reinit context to 432x240, pix_fmt: yuv420p
[h264 @ 0x55f83bfe6a00] Reinit context to 1280x720, pix_fmt: yuv420p
[Parsed_scale_0 @ 0x55f83c983dc0] w:1280 h:720 flags:'bilinear' interl:0
[Parsed_scale_2 @ 0x55f83c983f40] w:1280 h:720 flags:'bilinear' interl:0
[Parsed_scale_4 @ 0x55f83c98d780] w:1280 h:720 flags:'bilinear' interl:0
[graph 0 input from stream 0:0 @ 0x55f83c991f80] w:426 h:238 pixfmt:yuv420p tb:1/12800 fr:25/1 sar:1/1 sws_param:flags=2
[graph 0 input from stream 1:0 @ 0x55f83c993000] w:1920 h:1080 pixfmt:rgba tb:1/25 fr:25/1 sar:2835/2835 sws_param:flags=2
[graph 0 input from stream 2:1 @ 0x55f83c994080] w:1280 h:720 pixfmt:yuv420p tb:1/25000 fr:25/1 sar:1/1 sws_param:flags=2
[graph_0_in_0_1 @ 0x55f83c995000] tb:1/44100 samplefmt:fltp samplerate:44100 chlayout:0x3
[graph_0_in_2_0 @ 0x55f83c996140] tb:1/44100 samplefmt:fltp samplerate:44100 chlayout:0x3
[Parsed_scale_0 @ 0x55f83c983dc0] w:426 h:238 fmt:yuv420p sar:1/1 -> w:1280 h:720 fmt:yuv420p sar:1917/1904 flags:0x2
[Parsed_setsar_1 @ 0x55f83bb3ac00] w:1280 h:720 sar:1917/1904 dar:213/119 -> sar:1/1 dar:16/9
[Parsed_scale_2 @ 0x55f83c983f40] w:1920 h:1080 fmt:rgba sar:2835/2835 -> w:1280 h:720 fmt:yuva420p sar:1/1 flags:0x2
[Parsed_setsar_3 @ 0x55f83c98cc00] w:1280 h:720 sar:1/1 dar:16/9 -> sar:1/1 dar:16/9
[Parsed_overlay_6 @ 0x55f83c98eec0] main w:1280 h:720 fmt:yuv420p overlay w:1280 h:720 fmt:yuva420p
[Parsed_overlay_6 @ 0x55f83c98eec0] [framesync @ 0x55f83c98f028] Selected 1/12800 time base
[Parsed_overlay_6 @ 0x55f83c98eec0] [framesync @ 0x55f83c98f028] Sync level 2
[Parsed_scale_4 @ 0x55f83c98d780] w:1280 h:720 fmt:yuv420p sar:1/1 -> w:1280 h:720 fmt:yuv420p sar:1/1 flags:0x2
[Parsed_setsar_5 @ 0x55f83c98e2c0] w:1280 h:720 sar:1/1 dar:16/9 -> sar:1/1 dar:16/9
[libx264 @ 0x55f83bba6080] using SAR=1/1
[libx264 @ 0x55f83bba6080] using cpu capabilities: MMX2 SSE2Fast SSSE3 SSE4.2 AVX FMA3 BMI2 AVX2
[libx264 @ 0x55f83bba6080] profile High, level 3.1
[libx264 @ 0x55f83bba6080] 264 - core 155 r2917 0a84d98 - H.264/MPEG-4 AVC codec - Copyleft 2003-2018 - http://www.videolan.org/x264.html - options: cabac=1 ref=1 deblock=1:0:0 analyse=0x3:0x113 me=hex subme=2 psy=1 psy_rd=1.00:0.00 mixed_ref=0 me_range=16 chroma_me=1 trellis=0 8x8dct=1 cqm=0 deadzone=21,11 fast_pskip=1 chroma_qp_offset=0 threads=22 lookahead_threads=5 sliced_threads=0 nr=0 decimate=1 interlaced=0 bluray_compat=0 constrained_intra=0 bframes=3 b_pyramid=2 b_adapt=1 b_bias=0 direct=1 weightb=1 open_gop=0 weightp=1 keyint=250 keyint_min=25 scenecut=40 intra_refresh=0 rc_lookahead=10 rc=crf mbtree=1 crf=18.0 qcomp=0.60 qpmin=0 qpmax=69 qpstep=4 ip_ratio=1.40 aq=1:1.00
Output #0, mp4, to '/var/www/html/project/media/video/watermarks/La_Ricerca_Della_Felicita_-_Discorso_al_figlio.mp4':
  Metadata:
    major_brand     : isom
    minor_version   : 512
    compatible_brands: isomiso2avc1mp41
    encoder         : Lavf58.29.100
    Stream #0:0: Video: h264 (libx264), 1 reference frame (avc1 / 0x31637661), yuv420p(progressive), 1280x720 [SAR 1:1 DAR 16:9], q=-1--1, 25 fps, 12800 tbn, 25 tbc (default)
    Metadata:
      encoder         : Lavc58.54.100 libx264
    Side data:
      cpb: bitrate max/min/avg: 0/0/0 buffer size: 0 vbv_delay: -1
    Stream #0:1: Audio: aac (LC) (mp4a / 0x6134706D), 44100 Hz, stereo, fltp, delay 1024, 128 kb/s (default)
    Metadata:
      encoder         : Lavc58.54.100 aac
[Parsed_overlay_6 @ 0x55f83c98eec0] [framesync @ 0x55f83c98f028] Sync level 0
[Parsed_concat_7 @ 0x55f83c990000] EOF on in0:v0, 1 streams left in segment.
[Parsed_concat_7 @ 0x55f83c990000] EOF on in0:a0, 0 streams left in segment.
[Parsed_concat_7 @ 0x55f83c990000] Segment finished at pts=107856689
[Parsed_concat_7 @ 0x55f83c990000] EOF on in1:a0, 1 streams left in segment.
[Parsed_concat_7 @ 0x55f83c990000] EOF on in1:v0, 0 streams left in segment.
[Parsed_concat_7 @ 0x55f83c990000] Segment finished at pts=109875374
No more output streams to write to, finishing.
frame= 2742 fps=104 q=-1.0 Lsize=   20924kB time=00:01:49.87 bitrate=1560.0kbits/s speed=4.15x    
[AVIOContext @ 0x55f83bb19ec0] Statistics: 0 seeks, 53 writeouts
video:19120kB audio:1713kB subtitle:0kB other streams:0kB global headers:0kB muxing overhead: 0.433109%
Input file #0 (/var/www/html/project/media/video/original/La_Ricerca_Della_Felicita_-_Discorso_al_figlio.mp4):
  Input stream #0:0 (video): 2692 packets read (3236375 bytes); 2692 frames decoded; 
  Input stream #0:1 (audio): 4645 packets read (1725707 bytes); 4645 frames decoded (4756480 samples); 
  Input stream #0:2 (video): 1 packets read (120668 bytes); 
  Total: 7338 packets (5082750 bytes) demuxed
Input file #1 (/var/www/html/project/static/images/templates/logo.png):
  Input stream #1:0 (video): 1 packets read (111578 bytes); 1 frames decoded; 
  Total: 1 packets (111578 bytes) demuxed
Input file #2 (/var/www/html/project/static/images/templates/Codino.mp4):
  Input stream #2:0 (audio): 89 packets read (26579 bytes); 87 frames decoded (89024 samples); 
  Input stream #2:1 (video): 50 packets read (203365 bytes); 50 frames decoded; 
  Total: 139 packets (229944 bytes) demuxed
Output file #0 (/var/www/html/project/media/video/watermarks/La_Ricerca_Della_Felicita_-_Discorso_al_figlio.mp4):
  Output stream #0:0 (video): 2742 frames encoded; 2742 packets muxed (19579183 bytes); 
  Output stream #0:1 (audio): 4732 frames encoded (4845504 samples); 4733 packets muxed (1754250 bytes); 
  Total: 7475 packets (21333433 bytes) muxed
[AVIOContext @ 0x55f83bba4a00] Statistics: 2 seeks, 85 writeouts
[libx264 @ 0x55f83bba6080] frame I:24    Avg QP:13.31  size: 58999
[libx264 @ 0x55f83bba6080] frame P:798   Avg QP:16.82  size: 14677
[libx264 @ 0x55f83bba6080] frame B:1920  Avg QP:19.36  size:  3359
[libx264 @ 0x55f83bba6080] consecutive B-frames:  2.6%  8.0% 12.3% 77.2%
[libx264 @ 0x55f83bba6080] mb I  I16..4: 14.7% 28.9% 56.4%
[libx264 @ 0x55f83bba6080] mb P  I16..4:  7.2% 15.6%  3.0%  P16..4: 24.5% 14.4%  7.2%  0.0%  0.0%    skip:28.1%
[libx264 @ 0x55f83bba6080] mb B  I16..4:  1.3%  1.6%  0.1%  B16..8: 18.5%  5.3%  0.3%  direct: 5.8%  skip:67.3%  L0:45.0% L1:46.4% BI: 8.5%
[libx264 @ 0x55f83bba6080] 8x8 transform intra:56.5% inter:41.5%
[libx264 @ 0x55f83bba6080] coded y,uvDC,uvAC intra: 53.9% 35.8% 5.6% inter: 5.8% 9.2% 0.2%
[libx264 @ 0x55f83bba6080] i16 v,h,dc,p: 55% 24% 11% 11%
[libx264 @ 0x55f83bba6080] i8 v,h,dc,ddl,ddr,vr,hd,vl,hu: 38% 22% 12%  3%  5%  6%  4%  6%  4%
[libx264 @ 0x55f83bba6080] i4 v,h,dc,ddl,ddr,vr,hd,vl,hu: 35% 19% 10%  5%  7%  8%  5%  7%  3%
[libx264 @ 0x55f83bba6080] i8c dc,h,v,p: 57% 16% 22%  5%
[libx264 @ 0x55f83bba6080] Weighted P-Frames: Y:1.4% UV:0.3%
[libx264 @ 0x55f83bba6080] kb/s:1425.96
[aac @ 0x55f83bbab240] Qavg: 902.352
[AVIOContext @ 0x55f83bb22e80] Statistics: 5171733 bytes read, 0 seeks
[AVIOContext @ 0x55f83bb544c0] Statistics: 111578 bytes read, 0 seeks
[AVIOContext @ 0x55f83bb45780] Statistics: 1530915 bytes read, 42 seeks
